<?xml version="1.0" encoding="utf-8"?>
<!-- Generator: Adobe Illustrator 24.2.3, SVG Export Plug-In . SVG Version: 6.00 Build 0)  -->
<svg version="1.1" id="Слой_1" xmlns="http://www.w3.org/2000/svg" xmlns:xlink="http://www.w3.org/1999/xlink" x="0px" y="0px"
	 viewBox="0 0 135.4 128.8" style="enable-background:new 0 0 135.4 128.8;" xml:space="preserve">
<style type="text/css">
	.st0{fill:#D62425;stroke:#000000;stroke-width:3;stroke-miterlimit:10;}
	.st1{fill:#D62425;}
</style>
<image style="display:none;overflow:visible;" width="617" height="112" xlink:href="logo.png"  transform="matrix(1.5559 0 0 1.5559 289.2647 -41.1385)">
</image>
<path class="st0" d="M67.7,10.8c-30.8,0-55.8,24-55.8,53.6s25,53.6,55.8,53.6s55.8-24,55.8-53.6S98.5,10.8,67.7,10.8z M67.7,92.4
	c-16.1,0-29.2-12.5-29.2-28c0-15.5,13.1-28,29.2-28s29.2,12.5,29.2,28C96.9,79.9,83.8,92.4,67.7,92.4z"/>
<path d="M71.2,126V91.2c0-0.7-0.3-1.3-0.7-1.8l-0.7-0.7c-0.5-0.5-0.7-1.1-0.7-1.8L69,44c0-0.6,0.2-1.3,0.7-1.7l0.9-0.9
	c0.4-0.5,0.7-1.1,0.7-1.7V2.7c0-1.5-1.3-2.7-3-2.7h-1.1c-1.7,0-3,1.2-3,2.7v36.7c0,0.6,0.2,1.2,0.6,1.7l1,1.2
	c0.4,0.5,0.6,1.1,0.6,1.7v43c0,0.7-0.3,1.3-0.8,1.8l-0.7,0.7c-0.5,0.5-0.8,1.1-0.8,1.8V126c0,1.5,1.3,2.7,3,2.7h1.1
	C69.9,128.8,71.2,127.5,71.2,126z"/>
<path d="M2.9,67.8h36.6c0.7,0,1.4-0.3,1.9-0.7l0.7-0.7c0.5-0.5,1.2-0.7,1.9-0.7l45.2,0c0.7,0,1.3,0.2,1.8,0.7l1,0.8
	c0.5,0.4,1.2,0.7,1.8,0.7h38.7c1.6,0,2.9-1.3,2.9-2.9v-1c0-1.6-1.3-2.9-2.9-2.9H93.9c-0.6,0-1.2,0.2-1.7,0.6L91,62.5
	c-0.5,0.4-1.1,0.6-1.7,0.6H44c-0.7,0-1.4-0.3-1.9-0.7l-0.7-0.7c-0.5-0.5-1.2-0.7-1.9-0.7H2.9C1.3,61,0,62.3,0,63.9v1
	C0,66.5,1.3,67.8,2.9,67.8z"/>
<ellipse class="st1" cx="67.7" cy="64.4" rx="3.7" ry="3.5"/>
<path class="st0" d="M733.1-72c-30.8,0-55.8,24-55.8,53.6s25,53.6,55.8,53.6s55.8-24,55.8-53.6S763.9-72,733.1-72z M733.1,9.6
	c-16.1,0-29.2-12.5-29.2-28c0-15.5,13.1-28,29.2-28c16.1,0,29.2,12.5,29.2,28C762.2-2.9,749.2,9.6,733.1,9.6z"/>
<path d="M736.6,43.3V8.5c0-0.7-0.3-1.3-0.7-1.8l-0.7-0.7c-0.5-0.5-0.7-1.1-0.7-1.8l-0.1-43c0-0.6,0.2-1.3,0.7-1.7l0.9-0.9
	c0.4-0.5,0.7-1.1,0.7-1.7V-80c0-1.5-1.3-2.7-3-2.7h-1.1c-1.7,0-3,1.2-3,2.7v36.7c0,0.6,0.2,1.2,0.6,1.7l1,1.2
	c0.4,0.5,0.6,1.1,0.6,1.7v43c0,0.7-0.3,1.3-0.8,1.8l-0.7,0.7c-0.5,0.5-0.8,1.1-0.8,1.8v34.8c0,1.5,1.3,2.7,3,2.7h1.1
	C735.2,46,736.6,44.8,736.6,43.3z"/>
<path d="M668.2-15h36.6c0.7,0,1.4-0.3,1.9-0.7l0.7-0.7c0.5-0.5,1.2-0.7,1.9-0.7l45.2,0c0.7,0,1.3,0.2,1.8,0.7l1,0.8
	c0.5,0.4,1.2,0.7,1.8,0.7h38.7c1.6,0,2.9-1.3,2.9-2.9v-1c0-1.6-1.3-2.9-2.9-2.9h-38.6c-0.6,0-1.2,0.2-1.7,0.6l-1.2,0.9
	c-0.5,0.4-1.1,0.6-1.7,0.6h-45.2c-0.7,0-1.4-0.3-1.9-0.7l-0.7-0.7c-0.5-0.5-1.2-0.7-1.9-0.7h-36.6c-1.6,0-2.9,1.3-2.9,2.9v1
	C665.4-16.3,666.6-15,668.2-15z"/>
<ellipse class="st1" cx="733.1" cy="-18.4" rx="3.7" ry="3.5"/>
<rect x="292.8" y="143.9" style="fill:none;" width="960" height="113"/>
<text transform="matrix(1 0 0 1 340.7955 236.9876)"><tspan x="0" y="0" style="font-family:'SegoeUI-Semilight'; font-size:122px;">Ст</tspan><tspan x="123.2" y="0" style="font-family:'ShowcardGothic-Reg'; font-size:122px;">    </tspan><tspan x="220.9" y="0" style="font-family:'SegoeUI-Semilight'; font-size:122px;">пфактор</tspan><tspan x="676.1" y="0" style="font-family:'ShowcardGothic-Reg'; font-size:122px;">.</tspan><tspan x="712.7" y="0" style="font-family:'SegoeUI-Semilight'; font-size:122px;">рф</tspan></text>
</svg>
