<?xml version="1.0" encoding="utf-8"?>
<!-- Generator: Adobe Illustrator 24.2.3, SVG Export Plug-In . SVG Version: 6.00 Build 0)  -->
<svg version="1.1" id="Слой_1" xmlns="http://www.w3.org/2000/svg" xmlns:xlink="http://www.w3.org/1999/xlink" x="0px" y="0px"
	 viewBox="0 0 960 205.1" style="enable-background:new 0 0 960 205.1;" xml:space="preserve">
<style type="text/css">
	.st0{fill:#D62425;stroke:#000000;stroke-width:3;stroke-miterlimit:10;}
	.st1{fill:#D62425;}
	.st2{fill:none;}
	.st3{font-family:'SegoeUI';}
	.st4{font-size:122px;}
</style>
<image style="display:none;overflow:visible;" width="617" height="112" xlink:href="logo.png"  transform="matrix(1.5559 0 0 1.5559 0 15.4133)">
</image>
<path class="st0" d="M-221.6,67.3c-30.8,0-55.8,24-55.8,53.6s25,53.6,55.8,53.6s55.8-24,55.8-53.6S-190.8,67.3-221.6,67.3z
	 M-221.6,149c-16.1,0-29.2-12.5-29.2-28c0-15.5,13.1-28,29.2-28s29.2,12.5,29.2,28C-192.4,136.4-205.5,149-221.6,149z"/>
<path d="M-218,182.6v-34.8c0-0.7-0.3-1.3-0.7-1.8l-0.7-0.7c-0.5-0.5-0.7-1.1-0.7-1.8l-0.1-43c0-0.6,0.2-1.3,0.7-1.7l0.9-0.9
	c0.4-0.5,0.7-1.1,0.7-1.7V59.3c0-1.5-1.3-2.7-3-2.7h-1.1c-1.7,0-3,1.2-3,2.7V96c0,0.6,0.2,1.2,0.6,1.7l1,1.2
	c0.4,0.5,0.6,1.1,0.6,1.7v43c0,0.7-0.3,1.3-0.8,1.8l-0.7,0.7c-0.5,0.5-0.8,1.1-0.8,1.8v34.8c0,1.5,1.3,2.7,3,2.7h1.1
	C-219.4,185.3-218,184.1-218,182.6z"/>
<path d="M-286.4,124.3h36.6c0.7,0,1.4-0.3,1.9-0.7l0.7-0.7c0.5-0.5,1.2-0.7,1.9-0.7l45.2,0c0.7,0,1.3,0.2,1.8,0.7l1,0.8
	c0.5,0.4,1.2,0.7,1.8,0.7h38.7c1.6,0,2.9-1.3,2.9-2.9v-1c0-1.6-1.3-2.9-2.9-2.9h-38.6c-0.6,0-1.2,0.2-1.7,0.6l-1.2,0.9
	c-0.5,0.4-1.1,0.6-1.7,0.6h-45.2c-0.7,0-1.4-0.3-1.9-0.7l-0.7-0.7c-0.5-0.5-1.2-0.7-1.9-0.7h-36.6c-1.6,0-2.9,1.3-2.9,2.9v1
	C-289.3,123-288,124.3-286.4,124.3z"/>
<ellipse class="st1" cx="-221.6" cy="120.9" rx="3.7" ry="3.5"/>
<path class="st0" d="M219.9,50.9c-29.2,0-52.8,22.7-52.8,50.7s23.6,50.7,52.8,50.7s52.8-22.7,52.8-50.7S249,50.9,219.9,50.9z
	 M219.9,128.2c-15.3,0-27.6-11.9-27.6-26.5c0-14.7,12.4-26.5,27.6-26.5s27.6,11.9,27.6,26.5C247.5,116.3,235.1,128.2,219.9,128.2z"
	/>
<path d="M223.2,160v-33c0-0.6-0.3-1.2-0.7-1.7l-0.7-0.7c-0.5-0.5-0.7-1.1-0.7-1.7l0-40.7c0-0.6,0.2-1.2,0.7-1.6l0.8-0.9
	c0.4-0.5,0.7-1,0.7-1.6V43.3c0-1.4-1.3-2.6-2.9-2.6h-1c-1.6,0-2.9,1.2-2.9,2.6V78c0,0.6,0.2,1.1,0.6,1.6l0.9,1.1
	c0.4,0.4,0.6,1,0.6,1.6v40.7c0,0.6-0.3,1.2-0.7,1.7l-0.7,0.7c-0.5,0.5-0.7,1.1-0.7,1.7V160c0,1.4,1.3,2.6,2.9,2.6h1
	C221.9,162.6,223.2,161.4,223.2,160z"/>
<path d="M158.5,104.8h34.6c0.7,0,1.3-0.2,1.8-0.7l0.7-0.6c0.5-0.4,1.1-0.7,1.8-0.7l42.8,0c0.6,0,1.2,0.2,1.7,0.6l0.9,0.8
	c0.5,0.4,1.1,0.6,1.7,0.6h36.6c1.5,0,2.7-1.2,2.7-2.7v-1c0-1.5-1.2-2.7-2.7-2.7h-36.5c-0.6,0-1.2,0.2-1.6,0.6l-1.2,0.9
	c-0.5,0.4-1.1,0.6-1.6,0.6h-42.8c-0.7,0-1.3-0.2-1.8-0.7l-0.7-0.6c-0.5-0.4-1.1-0.7-1.8-0.7h-34.6c-1.5,0-2.7,1.2-2.7,2.7v1
	C155.8,103.6,157,104.8,158.5,104.8z"/>
<ellipse class="st1" cx="219.9" cy="101.6" rx="3.5" ry="3.3"/>
<rect x="0" y="46" class="st2" width="186.2" height="113"/>
<text transform="matrix(1 0 0 1 30.3072 136.3581)" class="st3 st4">Ст    </text>
<rect x="255" y="46" class="st2" width="705" height="113"/>
<text transform="matrix(1 0 0 1 281.5211 136.3581)" class="st3 st4">пфактор.рф</text>
</svg>
