<?xml version="1.0" encoding="utf-8"?>
<!-- Generator: Adobe Illustrator 24.2.3, SVG Export Plug-In . SVG Version: 6.00 Build 0)  -->
<svg version="1.1" id="Слой_1" focusable="false"
	 xmlns="http://www.w3.org/2000/svg" xmlns:xlink="http://www.w3.org/1999/xlink" x="0px" y="0px" viewBox="0 0 464.6 521.6"
	 style="enable-background:new 0 0 464.6 521.6;" xml:space="preserve">
<style type="text/css">
	.st0{fill:#5F697D;stroke:#000000;stroke-width:15;stroke-miterlimit:10;}
</style>
<path class="st0" d="M8.3,92.8c0-13.3,10.8-24,24-24h400c13.3,0,24,10.8,24,24c0,13.3-10.7,24-24,24h-400
	C19,116.8,8.3,106.1,8.3,92.8z M8.3,252.8c0-13.3,10.8-24,24-24h400c13.3,0,24,10.7,24,24s-10.7,24-24,24h-400
	C19,276.8,8.3,266.1,8.3,252.8z M432.3,436.8h-400c-13.3,0-24-10.7-24-24s10.8-24,24-24h400c13.3,0,24,10.7,24,24
	S445.6,436.8,432.3,436.8z"/>
</svg>
