<?xml version="1.0" encoding="utf-8"?>
<!-- Generator: Adobe Illustrator 24.2.3, SVG Export Plug-In . SVG Version: 6.00 Build 0)  -->
<svg version="1.1" id="Слой_1" focusable="false"
	 xmlns="http://www.w3.org/2000/svg" xmlns:xlink="http://www.w3.org/1999/xlink" x="0px" y="0px" viewBox="0 0 448 512"
	 style="enable-background:new 0 0 448 512;" xml:space="preserve">
<style type="text/css">
	.st0{fill:#FFFFFF;}
</style>
<path class="st0" d="M0,88c0-13.3,10.8-24,24-24h400c13.3,0,24,10.8,24,24c0,13.3-10.7,24-24,24H24C10.8,112,0,101.3,0,88z M0,248
	c0-13.3,10.8-24,24-24h400c13.3,0,24,10.7,24,24c0,13.3-10.7,24-24,24H24C10.8,272,0,261.3,0,248z M424,432H24
	c-13.3,0-24-10.7-24-24s10.8-24,24-24h400c13.3,0,24,10.7,24,24S437.3,432,424,432z"/>
</svg>
